<svg width="24" height="24" viewBox="0 0 24 24" fill="none" xmlns="http://www.w3.org/2000/svg">
<path d="M15.7348 17.9889C16.1636 19.5893 15.2139 21.2343 13.6135 21.6631C12.0131 22.092 10.3681 21.1422 9.93923 19.5418M2.1457 11.5874C1.75621 10.1892 2.16125 8.67761 3.19765 7.6615M12.2352 5.71497C12.5394 5.16767 12.6396 4.50617 12.4647 3.85357C12.1074 2.51991 10.7365 1.72845 9.40287 2.08581C8.0692 2.44316 7.27775 3.814 7.6351 5.14767C7.80997 5.80027 8.2275 6.32304 8.7646 6.64491M20.4079 6.69412C20.0461 5.28851 18.9395 4.18191 17.5339 3.82014M17.5795 9.4194C17.2226 8.08727 16.2696 6.97331 14.9304 6.32257C13.5911 5.67184 11.9752 5.53764 10.4381 5.9495C8.90101 6.36136 7.56868 7.28554 6.7342 8.51873C5.89972 9.75192 5.63144 11.1931 5.98839 12.5252C6.57896 14.7293 6.46429 16.4877 6.09133 17.8238C5.66627 19.3467 5.45373 20.1081 5.51115 20.261C5.57684 20.4359 5.62436 20.4839 5.79859 20.5514C5.95089 20.6104 6.59066 20.439 7.8702 20.0962L19.7353 16.9169C21.0148 16.5741 21.6546 16.4026 21.757 16.2754C21.8741 16.1298 21.8912 16.0645 21.8607 15.8801C21.834 15.719 21.2692 15.1659 20.1396 14.0596C19.1486 13.0889 18.1701 11.6235 17.5795 9.4194Z" stroke="white" stroke-width="2" stroke-linecap="round" stroke-linejoin="round"/>
</svg>
