<svg width="24" height="24" viewBox="0 0 24 24" fill="none" xmlns="http://www.w3.org/2000/svg">
<path d="M4.99993 11.8314C4.99993 8.51771 7.68622 5.83142 10.9999 5.83142M4.99993 11.8314C4.99993 13.4798 5.66466 14.9729 6.74067 16.0574C6.84445 16.162 6.89633 16.2143 6.92696 16.2646C6.95619 16.3125 6.9732 16.3538 6.98625 16.4085C6.99993 16.4658 6.99993 16.5309 6.99993 16.6612V19.0314C6.99993 19.3114 6.99993 19.4515 7.05443 19.5584C7.10236 19.6525 7.17885 19.729 7.27293 19.7769C7.37989 19.8314 7.5199 19.8314 7.79993 19.8314H9.69993C9.97996 19.8314 10.12 19.8314 10.2269 19.7769C10.321 19.729 10.3975 19.6525 10.4454 19.5584C10.4999 19.4515 10.4999 19.3114 10.4999 19.0314V18.6314C10.4999 18.3514 10.4999 18.2114 10.5544 18.1044C10.6024 18.0103 10.6789 17.9339 10.7729 17.8859C10.8799 17.8314 11.0199 17.8314 11.2999 17.8314H12.6999C12.98 17.8314 13.12 17.8314 13.2269 17.8859C13.321 17.9339 13.3975 18.0103 13.4454 18.1044C13.4999 18.2114 13.4999 18.3514 13.4999 18.6314V19.0314C13.4999 19.3114 13.4999 19.4515 13.5544 19.5584C13.6024 19.6525 13.6789 19.729 13.7729 19.7769C13.8799 19.8314 14.0199 19.8314 14.2999 19.8314H16.2C16.48 19.8314 16.62 19.8314 16.727 19.7769C16.8211 19.729 16.8976 19.6525 16.9455 19.5584C17 19.4515 17 19.3114 17 19.0314V18.0558C17 17.8537 17 17.7527 17.0288 17.6716C17.0563 17.5938 17.0911 17.5394 17.15 17.4817C17.2114 17.4214 17.3155 17.3731 17.5237 17.2764C18.5059 16.8204 19.344 16.1065 19.9511 15.2216C20.0579 15.066 20.1112 14.9882 20.1683 14.9422C20.2228 14.8983 20.2717 14.8725 20.3387 14.8524C20.4089 14.8314 20.4922 14.8314 20.6587 14.8314H21.2C21.48 14.8314 21.62 14.8314 21.727 14.7769C21.8211 14.729 21.8976 14.6525 21.9455 14.5584C22 14.4515 22 14.3114 22 14.0314V10.6172C22 10.3506 22 10.2173 21.9505 10.1145C21.9013 10.0124 21.819 9.93009 21.717 9.88095C21.6141 9.83142 21.4808 9.83142 21.2143 9.83142C21.0213 9.83142 20.9248 9.83142 20.8471 9.80523C20.7633 9.77698 20.7045 9.73941 20.6437 9.67519C20.5874 9.61564 20.5413 9.51606 20.4493 9.3169C20.1538 8.67765 19.7492 8.0992 19.2593 7.60546C19.1555 7.50088 19.1036 7.44859 19.073 7.3983C19.0437 7.35031 19.0267 7.30901 19.0137 7.25437C19 7.19709 19 7.13193 19 7.0016V5.892C19 5.53196 19 5.35193 18.925 5.23093C18.8593 5.12493 18.7564 5.0473 18.6365 5.01327C18.4995 4.97442 18.3264 5.02387 17.9802 5.12278L15.6077 5.80064C15.5673 5.81216 15.5472 5.81792 15.5267 5.82197C15.5085 5.82556 15.4901 5.82813 15.4716 5.82968C15.4508 5.83142 15.4297 5.83142 15.3874 5.83142H10.9999M4.99993 11.8314H4C2.89543 11.8314 2 10.936 2 9.83142C2 9.09114 2.4022 8.4448 3 8.09899M10.9999 5.83142H14.9646M10.9999 5.83142C9.99144 5.83142 9.04114 6.08023 8.20692 6.51981" stroke="white" stroke-width="2" stroke-linecap="round" stroke-linejoin="round"/>
</svg>
