<svg width="24" height="24" viewBox="0 0 24 24" fill="none" xmlns="http://www.w3.org/2000/svg">
<path d="M11.302 21.218C11.5234 21.3471 11.6341 21.4117 11.7903 21.4452C11.9116 21.4712 12.0884 21.4712 12.2097 21.4452C12.3659 21.4117 12.4766 21.3471 12.698 21.218C14.646 20.0815 20 16.5115 20 11.6031V7.80309C20 6.7292 20 6.19225 19.8345 5.8111C19.6662 5.4237 19.4986 5.21761 19.1536 4.974C18.8141 4.73432 18.1486 4.59592 16.8177 4.31912C15.3508 4.01403 14.2243 3.46313 13.1944 2.66641C12.7005 2.28436 12.4536 2.09334 12.2603 2.04123C12.0564 1.98626 11.9436 1.98626 11.7397 2.04123C11.5464 2.09334 11.2995 2.28436 10.8056 2.66641C9.77572 3.46313 8.6492 4.01403 7.1823 4.31912C5.85137 4.59592 5.18591 4.73432 4.84645 4.974C4.50142 5.21761 4.33379 5.4237 4.16554 5.8111C4 6.19225 4 6.7292 4 7.80309V11.6031C4 16.5115 9.35396 20.0815 11.302 21.218Z" stroke="white" stroke-width="2" stroke-linecap="round" stroke-linejoin="round"/>
</svg>
