<svg width="16" height="16" viewBox="0 0 18 18" fill="none" xmlns="http://www.w3.org/2000/svg">
<g clip-path="url(#clip0_325_1390)">
<path d="M13.309 12C13.9021 11.1496 14.25 10.1154 14.25 9C14.25 8.61383 14.2083 8.2374 14.1292 7.87497M4.69102 12C4.09786 11.1496 3.75 10.1154 3.75 9C3.75 6.10051 6.10051 3.75 9 3.75C9.3166 3.75 9.62666 3.77802 9.92782 3.83173M12.3749 5.625L8.99993 9M16.5 9C16.5 13.1421 13.1421 16.5 9 16.5C4.85786 16.5 1.5 13.1421 1.5 9C1.5 4.85786 4.85786 1.5 9 1.5C13.1421 1.5 16.5 4.85786 16.5 9ZM9.75 9C9.75 9.41421 9.41421 9.75 9 9.75C8.58579 9.75 8.25 9.41421 8.25 9C8.25 8.58579 8.58579 8.25 9 8.25C9.41421 8.25 9.75 8.58579 9.75 9Z" stroke="#FFF6F1" stroke-width="1.5" stroke-linecap="round" stroke-linejoin="round"/>
</g>
<defs>
<clipPath id="clip0_325_1390">
<rect width="18" height="18" fill="white"/>
</clipPath>
</defs>
</svg>
